<svg width="130" height="130" viewBox="0 0 130 130" fill="none" xmlns="http://www.w3.org/2000/svg">
<g filter="url(#filter0_di_217_399)">
<path d="M8.33334 16C8.33334 9.37259 13.7059 4 20.3333 4H109.667C116.294 4 121.667 9.37258 121.667 16V105.333C121.667 111.961 116.294 117.333 109.667 117.333H20.3334C13.7059 117.333 8.33334 111.961 8.33334 105.333V16Z" fill="url(#paint0_linear_217_399)" shape-rendering="crispEdges"/>
<path d="M64.9456 79.6364V43.2727H67.2751V79.6364H64.9456ZM70.5564 55.6307C70.4617 54.589 70.0403 53.7794 69.2922 53.2017C68.5535 52.6146 67.4976 52.321 66.1245 52.321C65.2154 52.321 64.4579 52.4394 63.8518 52.6761C63.2457 52.9129 62.7912 53.2396 62.4882 53.6562C62.1851 54.0634 62.0289 54.5322 62.0194 55.0625C62.0005 55.4981 62.0857 55.8816 62.2751 56.2131C62.474 56.5445 62.7581 56.8381 63.1274 57.0938C63.5062 57.34 63.9607 57.5578 64.491 57.7472C65.0213 57.9366 65.6179 58.1023 66.2808 58.2443L68.7808 58.8125C70.2202 59.125 71.4891 59.5417 72.5876 60.0625C73.6956 60.5833 74.6236 61.2036 75.3717 61.9233C76.1293 62.643 76.7022 63.4716 77.0904 64.4091C77.4787 65.3466 77.6776 66.3977 77.687 67.5625C77.6776 69.3996 77.2136 70.9763 76.295 72.2926C75.3764 73.6089 74.0554 74.6174 72.3319 75.3182C70.6179 76.0189 68.5488 76.3693 66.1245 76.3693C63.6908 76.3693 61.5696 76.0047 59.7609 75.2756C57.9522 74.5464 56.5459 73.4384 55.5422 71.9517C54.5384 70.465 54.0223 68.5852 53.9939 66.3125H60.7268C60.7836 67.25 61.0346 68.0312 61.4797 68.6562C61.9247 69.2812 62.5355 69.7547 63.312 70.0767C64.098 70.3987 65.0071 70.5597 66.0393 70.5597C66.9863 70.5597 67.7912 70.4318 68.4541 70.1761C69.1264 69.9205 69.6425 69.5653 70.0024 69.1108C70.3622 68.6562 70.5469 68.1354 70.5564 67.5483C70.5469 66.9991 70.3764 66.5303 70.045 66.142C69.7136 65.7443 69.2022 65.4034 68.5109 65.1193C67.8291 64.8258 66.9579 64.5559 65.8973 64.3097L62.8575 63.5994C60.3386 63.0218 58.3547 62.089 56.9058 60.8011C55.4569 59.5038 54.7372 57.7519 54.7467 55.5455C54.7372 53.7462 55.2202 52.1695 56.1956 50.8153C57.1709 49.4612 58.5204 48.4053 60.2439 47.6477C61.9673 46.8902 63.9323 46.5114 66.1387 46.5114C68.3925 46.5114 70.348 46.8949 72.0052 47.6619C73.6719 48.4195 74.9645 49.4848 75.8831 50.858C76.8016 52.2311 77.2704 53.822 77.2893 55.6307H70.5564Z" fill="white" fill-opacity="0.4"/>
</g>
<defs>
<filter id="filter0_di_217_399" x="-7.66666" y="-12" width="145.333" height="145.333" filterUnits="userSpaceOnUse" color-interpolation-filters="sRGB">
<feFlood flood-opacity="0" result="BackgroundImageFix"/>
<feColorMatrix in="SourceAlpha" type="matrix" values="0 0 0 0 0 0 0 0 0 0 0 0 0 0 0 0 0 0 127 0" result="hardAlpha"/>
<feOffset dy="4"/>
<feGaussianBlur stdDeviation="4"/>
<feComposite in2="hardAlpha" operator="out"/>
<feColorMatrix type="matrix" values="0 0 0 0 0.0951164 0 0 0 0 0.102085 0 0 0 0 0.126477 0 0 0 0.3 0"/>
<feBlend mode="normal" in2="BackgroundImageFix" result="effect1_dropShadow_217_399"/>
<feBlend mode="normal" in="SourceGraphic" in2="effect1_dropShadow_217_399" result="shape"/>
<feColorMatrix in="SourceAlpha" type="matrix" values="0 0 0 0 0 0 0 0 0 0 0 0 0 0 0 0 0 0 127 0" result="hardAlpha"/>
<feOffset dy="1"/>
<feComposite in2="hardAlpha" operator="arithmetic" k2="-1" k3="1"/>
<feColorMatrix type="matrix" values="0 0 0 0 1 0 0 0 0 1 0 0 0 0 1 0 0 0 0.2 0"/>
<feBlend mode="normal" in2="shape" result="effect2_innerShadow_217_399"/>
</filter>
<linearGradient id="paint0_linear_217_399" x1="65" y1="4" x2="65" y2="117.333" gradientUnits="userSpaceOnUse">
<stop stop-color="white" stop-opacity="0.1"/>
<stop offset="1" stop-color="white" stop-opacity="0.05"/>
</linearGradient>
</defs>
</svg>
