<svg width="37" height="40" viewBox="0 0 37 40" fill="none" xmlns="http://www.w3.org/2000/svg">
<g filter="url(#filter0_d_1_1115)">
<path d="M18.5 24C16.4425 23.9925 14.6652 23.5084 13.1682 22.5478C11.6712 21.5872 10.517 20.2026 9.70584 18.394C8.89464 16.5854 8.49273 14.4165 8.5001 11.8874C8.50747 9.35084 8.91307 7.197 9.7169 5.42589C10.5281 3.65478 11.6785 2.30769 13.1682 1.38462C14.6652 0.461539 16.4425 0 18.5 0C20.5575 0 22.3348 0.465291 23.8318 1.39587C25.3288 2.31895 26.483 3.66604 27.2942 5.43715C28.1054 7.20825 28.5073 9.35835 28.4999 11.8874C28.4999 14.4315 28.0943 16.6079 27.2831 18.4165C26.4719 20.2251 25.3178 21.6098 23.8207 22.5704C22.3311 23.5235 20.5575 24 18.5 24ZM18.5 18.9118C19.5619 18.9118 20.4321 18.349 21.1106 17.2233C21.7964 16.0901 22.1357 14.3114 22.1283 11.8874C22.1283 10.3039 21.9734 9.00938 21.6637 8.00375C21.354 6.99812 20.9262 6.25516 20.3805 5.77486C19.8348 5.28705 19.208 5.04315 18.5 5.04315C17.4381 5.04315 16.5716 5.59099 15.9005 6.68668C15.2294 7.78236 14.8865 9.51595 14.8717 11.8874C14.8643 13.5009 15.0155 14.8293 15.3253 15.8724C15.635 16.9081 16.0627 17.6735 16.6084 18.1689C17.1615 18.6642 17.792 18.9118 18.5 18.9118Z" fill="#FFEB7E"/>
</g>
<defs>
<filter id="filter0_d_1_1115" x="0.5" y="0" width="36" height="40" filterUnits="userSpaceOnUse" color-interpolation-filters="sRGB">
<feFlood flood-opacity="0" result="BackgroundImageFix"/>
<feColorMatrix in="SourceAlpha" type="matrix" values="0 0 0 0 0 0 0 0 0 0 0 0 0 0 0 0 0 0 127 0" result="hardAlpha"/>
<feOffset dy="8"/>
<feGaussianBlur stdDeviation="4"/>
<feComposite in2="hardAlpha" operator="out"/>
<feColorMatrix type="matrix" values="0 0 0 0 0.0951164 0 0 0 0 0.102085 0 0 0 0 0.126477 0 0 0 0.4 0"/>
<feBlend mode="normal" in2="BackgroundImageFix" result="effect1_dropShadow_1_1115"/>
<feBlend mode="normal" in="SourceGraphic" in2="effect1_dropShadow_1_1115" result="shape"/>
</filter>
</defs>
</svg>
